<svg xmlns="http://www.w3.org/2000/svg" width="250" height="250" fill="none" viewBox="0 0 250 250">
<!-- SVG created with Arrow, by QuiverAI (https://quiver.ai) -->
  <path d="m19.7 92.68h-12.25c-0.74 0-1.34 0.6-1.34 1.33v34.96c0 0.74 0.6 1.34 1.34 1.34h12.36c11.34 0 19.13-7.43 19.13-18.41 0-9.84-7.22-19.22-19.24-19.22zm0.22 29.93h-6.54v-22.39h6.98c6.99 0 10.46 5.89 10.46 11.79 0 6.05-3.58 10.6-10.9 10.6z" fill="#263238"/>
  <path d="m56.89 102.8c-8.74 0-14.17 6.72-14.17 13.81 0 8.06 6.16 14.28 15.06 14.28 5.65 0 9.23-2.25 10.79-4.23 0.69-0.86 0.37-1.49-0.21-1.93l-3.25-2.51c-0.59-0.44-1.08-0.33-1.72 0.21-1.62 1.4-3.13 1.79-5.33 1.79-3.7 0-6.67-1.79-7.69-4.66h17.94c1.29 0 1.56-0.69 1.61-1.73 0.49-8.15-4.01-15.03-13.03-15.03zm-6.73 11.98c0.96-3.37 3.58-5.37 6.73-5.37 3.53 0 5.56 2 6.32 5.37h-13.05z" fill="#263238"/>
  <path d="m90.32 102.8c-4.18 0-6.16 1.84-7.23 3.13l-0.44-1.4c-0.16-0.59-0.54-0.97-1.29-0.97h-5.7c-0.64 0-1.13 0.49-1.13 1.13v24.48c0 0.64 0.49 1.13 1.13 1.13h5.86c0.64 0 1.13-0.49 1.13-1.13v-13.32c0-3.96 2.21-6.44 5.68-6.44 3.53 0 4.98 2.31 4.98 6.33v13.43c0 0.64 0.49 1.13 1.13 1.13h5.59c0.64 0 1.13-0.49 1.13-1.13v-14.5c0-6.77-3.53-11.87-10.84-11.87z" fill="#263238"/>
  <path d="m120.3 103.6h-4.66v-6.56c0-0.8-0.64-1.29-1.49-1.02l-5.27 1.5c-0.64 0.22-1.02 0.54-1.02 1.29v4.79h-3.15c-0.64 0-1.13 0.49-1.13 1.13v4.83c0 0.64 0.49 1.13 1.13 1.13h3.15v11.19c0 6.11 2.68 8.46 8.73 8.46h3.66c0.64 0 1.13-0.49 1.13-1.13v-4.83c0-0.64-0.49-1.13-1.13-1.13h-2.36c-1.51 0-2.25-0.81-2.25-2.9v-9.66h4.66c0.64 0 1.13-0.49 1.13-1.13v-4.83c0-0.64-0.49-1.13-1.13-1.13z" fill="#263238"/>
  <path d="m151.5 103.2h-4.89c-0.69 0-1.18 0.43-1.34 1.18l-0.49 1.98c-1.45-1.76-4.02-3.6-8.2-3.6-7.95 0-12.66 6.56-12.66 14.1 0 7.83 5.38 13.88 13.38 13.88 3.36 0 5.93-1.67 7.76-3.46l0.43 1.74c0.16 0.64 0.59 0.97 1.29 0.97h4.72c0.64 0 1.12-0.49 1.12-1.13v-24.53c0-0.65-0.48-1.13-1.12-1.13zm-12.91 20.56c-4.83 0-6.86-3.76-6.86-7.07 0-3.96 2.52-7.21 6.7-7.21 4.71 0 6.9 3.58 6.9 7.21 0 3.91-2.67 7.07-6.74 7.07z" fill="#263238"/>
  <path d="m165.5 91h-5.65c-0.64 0-1.13 0.49-1.13 1.13v37.05c0 0.64 0.49 1.13 1.13 1.13h5.65c0.64 0 1.13-0.49 1.13-1.13v-37.05c0-0.64-0.49-1.13-1.13-1.13z" fill="#263238"/>
  <path d="m230.6 107.9c-4.6-1.12-6.44-1.87-6.44-4.18 0-2.35 2.08-3.75 5.6-3.75 3.2 0 5.34 1.74 6.57 3.92 0.27 0.48 0.86 0.64 1.4 0.32l4.34-2.89c0.54-0.38 0.64-0.92 0.37-1.51-2.52-4.61-6.75-7.7-12.68-7.7-7.89 0-13.05 4.41-13.05 11.29 0 6.5 5 9.37 11.99 11.11 5.05 1.29 7.31 2.1 7.31 4.73 0 2.36-2.09 3.8-5.9 3.8-3.87 0-6.34-1.98-8.18-4.34-0.43-0.59-1.07-0.7-1.66-0.27l-5.27 3.52c1.88 5.32 6.44 8.94 15 8.94 8.69 0 13.46-4.99 13.46-11.17 0-6.56-4.88-9.82-12.86-11.82z" fill="#263238"/>
  <path d="m206.4 94.65c1.78 5.99 0.76 13.16-3.73 19.86-7.68 11.62-21.43 13.82-31.53 5.55-0.1-0.06-0.27-0.25-0.33-0.31 4.73 9.23 13.29 14.59 24.18 12.97 10.78-2.36 17.27-11.83 17.27-22 0-6.34-2.25-12.08-5.86-16.07z" fill="url(#paint0_linear_2306_1301)"/>
  <path d="m191 90.39c-12.5 0-20.33 10.72-20.33 20.89 0 6.45 2.52 11.44 10.25 12.14 1.83 0.27 3 0.11 5.03-0.48-5-2.25-7.08-6.91-7.08-11.66 0-7.65 6.05-12.97 12.29-12.97 7.26 0 11.97 5.21 12.78 11.88 1.18-2.03 1.5-4.01 1.5-5.99 0-8.05-5.27-13.81-14.44-13.81z" fill="#263238"/>
  <path d="m93.5 144c-1.73 0-3.19 0.78-3.96 2.17v-5.84h-1.54v14.5h1.33l0.15-1.87c0.83 1.29 2.25 2.07 3.98 2.07 3.25 0 4.93-2.41 4.93-5.59 0-3.01-1.87-5.44-4.89-5.44zm-0.27 9.56c-2.41 0-3.75-1.83-3.75-4.32 0-2.21 1.46-3.77 3.71-3.77 2.33 0 3.64 1.79 3.64 4.06 0 2.3-1.25 4.03-3.6 4.03z" fill="#263238"/>
  <path d="m107.5 144.2-3.36 8.64-3.51-8.64h-1.73l4.4 10.48-0.35 0.82c-0.74 1.6-1.25 1.85-2.52 1.85h-0.55v1.46h0.71c2.04 0 3.04-0.98 4.14-3.7l4.35-10.91h-1.58z" fill="#263238"/>
  <path d="m124.1 154.8h2.06l-3.35-5.87c1.9-0.66 2.79-2.36 2.79-3.93 0-2.13-1.33-4.7-4.85-4.7h-5.38v14.5h1.81v-5.43h3.88l3.04 5.43zm-6.92-12.96h3.53c2.25 0 3.09 1.68 3.09 3.16 0 1.4-0.89 2.9-3.09 2.9h-3.53v-6.06z" fill="#263238"/>
  <path d="m134 144.2v5.83c0 2.3-1.25 3.65-3.08 3.65-1.63 0-2.5-0.98-2.5-3.19v-6.29h-1.6v6.53c0 2.72 1.4 4.3 3.83 4.3 1.58 0 2.75-0.78 3.39-1.82l0.23 1.62h1.33v-10.63h-1.6z" fill="#263238"/>
  <path d="m143.2 145.5v-1.34h-2.57v-3.06h-1.56v3.06h-1.98v1.34h1.92v6.64c0 1.75 0.71 2.65 2.58 2.65h1.73v-1.42h-1.41c-0.94 0-1.28-0.36-1.28-1.39v-6.48h2.57z" fill="#263238"/>
  <path d="m145.7 154.8h1.79v-14.5h-1.79v14.5z" fill="#263238"/>
  <path d="m160.2 154.8h1.96l-5.28-14.5h-2.15l-5.78 14.5h1.94l1.4-3.75h6.49l1.42 3.75zm-7.22-5.25 2.75-7.39 2.62 7.39h-5.37z" fill="#263238"/>
  <defs>
    <linearGradient id="paint0_linear_2306_1301" x1="172.7" x2="211.1" y1="126.9" y2="102" gradientUnits="userSpaceOnUse">
      <stop stop-color="#008571" offset="0"/>
      <stop stop-color="#189974" offset=".1302"/>
      <stop stop-color="#38B678" offset=".3441"/>
      <stop stop-color="#51CC7B" offset=".555"/>
      <stop stop-color="#62DA7D" offset=".7581"/>
      <stop stop-color="#69DF7E" offset=".9491"/>
    </linearGradient>
  </defs>
</svg>