<svg xmlns="http://www.w3.org/2000/svg" width="250" height="250" fill="none" viewBox="0 0 250 250">
<!-- SVG created with Arrow, by QuiverAI (https://quiver.ai) -->
  <path d="m44.87 104.9h-21.21c-10.71 0-17.13 10.02-17.13 18.37v41.01c0 0.99 0.68 1.57 1.5 1.57h9.11c1.04 0 1.57-0.73 1.57-1.57v-40.53c0-4.3 2.36-6.3 6-6.3h19.85c1.19 0 1.77-0.88 1.77-1.72v-8.91c0-1.14-0.73-1.92-1.46-1.92z" fill="#343F47"/>
  <path d="m151.9 104.9h-16.23v12.12h15.93c1.14 0 1.82-0.84 1.82-1.73v-8.57c0-0.99-0.78-1.82-1.52-1.82z" fill="url(#paint0_linear_186_2592)"/>
  <path d="m135.7 85.37c0-0.89-11.36-1.26-11.36-1.26-1.04 0-1.62 0.68-1.62 1.62v18.58l-0.02 12.75v30.61c0 9.82 8.07 18.07 18.01 18.07h11.42c1.04 0 1.72-0.73 1.72-1.72v-9.4c0-0.94-0.73-1.67-1.62-1.67h-9.5c-4.28 0-7.03-2.76-7.03-7.05v-60.53z" fill="#343F47"/>
  <path d="m173.9 84h-9.89c-1.14 0-1.77 0.73-1.77 1.62v10.59c0 1.14 0.73 1.77 1.62 1.77h9.89c1.14 0 1.77-0.73 1.77-1.62v-10.58c0-1.05-0.74-1.78-1.62-1.78z" fill="url(#paint1_linear_186_2592)"/>
  <path d="m173.8 104.6h-9.89c-1.14 0-1.77 0.84-1.77 1.78v57.83c0 1.04 0.73 1.67 1.62 1.67h9.89c1.14 0 1.77-0.73 1.77-1.67v-57.83c0-1.04-0.73-1.78-1.62-1.78z" fill="url(#paint2_linear_186_2592)"/>
  <path d="m226 104.7h-36.06c-1.14 0-1.77 0.84-1.77 1.78v9.32c0 1.04 0.73 1.67 1.62 1.67h34.39c4.28 0 6.84 2.3 6.84 6.59v4.44h-29.91c-10.56 0-16.93 9.02-16.93 18.79s8.07 18.43 17.18 18.43h24.64c10.51 0 18.14-9.62 18.14-18.02v-24.41c0-9.47-7.97-18.59-18.14-18.59zm5.07 42.07c0 3.82-3.29 6.07-6.58 6.07h-21.91c-3.69 0-5.41-3.25-5.41-5.55 0-2.5 1.67-5.8 5.11-5.8h28.79v5.28z" fill="#343F47"/>
  <path d="m135.7 90.75c0 8.35-6.83 13.77-12.78 13.77h-14c-9.99 0-12.99 9.42-12.99 13.71v16.08c0-7.48 4.86-16.82 12.47-16.82h14.72c7.92 0 12.58-8.56 12.58-13.69v-13.05z" fill="url(#paint3_linear_186_2592)"/>
  <path d="m108.3 117.5h-0.2c-7.36 0-12.17 7.52-12.17 16.43v12.24c0 4.55-2.8 6.85-6.19 6.85h-17.53c-4.28 0-6.35-3.69-6.35-7.22v-39.4c0-1.04-0.73-1.67-1.62-1.67h-9.5c-1.14 0-1.77 0.73-1.77 1.67v40.55c0 9.82 8.07 18.8 18.01 18.8h19.65c10.51 0 17.67-9.62 17.67-18.02v-30.23z" fill="#343F47"/>
  <defs>
    <linearGradient id="paint0_linear_186_2592" x1="131.9" x2="147.8" y1="106.4" y2="117.9" gradientUnits="userSpaceOnUse">
      <stop stop-color="#36976E" offset="0"/>
      <stop stop-color="#B2D271" offset="1"/>
    </linearGradient>
    <linearGradient id="paint1_linear_186_2592" x1="164" x2="173.8" y1="84.76" y2="96.97" gradientUnits="userSpaceOnUse">
      <stop stop-color="#77BF67" offset="0"/>
      <stop stop-color="#8CC668" offset="1"/>
    </linearGradient>
    <linearGradient id="paint2_linear_186_2592" x1="168.7" x2="168.7" y1="104.6" y2="165.9" gradientUnits="userSpaceOnUse">
      <stop stop-color="#B0D26C" offset="0"/>
      <stop stop-color="#7ABB6A" offset=".5052"/>
      <stop stop-color="#389678" offset="1"/>
    </linearGradient>
    <linearGradient id="paint3_linear_186_2592" x1="95.91" x2="137.6" y1="102.7" y2="102.7" gradientUnits="userSpaceOnUse">
      <stop stop-color="#389678" offset="0"/>
      <stop stop-color="#79BA69" offset=".5104"/>
      <stop stop-color="#B0D26C" offset="1"/>
    </linearGradient>
  </defs>
</svg>